<svg xmlns="http://www.w3.org/2000/svg" version="1.1" xmlns:xlink="http://www.w3.org/1999/xlink" xmlns:svgjs="http://svgjs.dev/svgjs" width="1440" height="560" preserveAspectRatio="none" viewBox="0 0 1440 560"><g mask="url(&quot;#SvgjsMask1001&quot;)" fill="none"><rect width="1440" height="560" x="0" y="0" fill="rgba(46, 134, 95, 1)"></rect><path d="M0,532.37C97.973,536.423,160.565,429.097,234.014,364.133C296.428,308.929,367.926,259.388,396.947,181.28C425.086,105.545,405.249,23.275,390.149,-56.095C375.672,-132.189,355.246,-205.933,311.163,-269.624C263.327,-338.737,204.208,-400.193,127.777,-435.167C44.054,-473.478,-51.705,-502.875,-139.754,-475.957C-227.548,-449.117,-284.368,-367.376,-337.909,-292.8C-387.564,-223.636,-428.253,-147.497,-436.411,-62.746C-444.351,19.741,-421.487,101.528,-382.924,174.876C-345.805,245.478,-280.199,290.84,-221.894,345.273C-149.713,412.66,-98.664,528.289,0,532.37" fill="#256b4c"></path><path d="M1440 1162.96C1572.089 1169.574 1718.663 1238.201 1828.724 1164.866 1938.862 1091.48 1951.929 935.1700000000001 1976.922 805.204 1997.505 698.17 1983.229 591.68 1959.403 485.321 1937.2069999999999 386.23900000000003 1909.992 287.103 1843.643 210.24099999999999 1777.222 133.296 1679.079 100.81799999999998 1588.195 55.295000000000016 1476.566-0.6190000000000282 1371.431-116.09299999999996 1249.99-87.11599999999999 1129.309-58.32000000000005 1072.976 82.14699999999999 1015.298 191.99400000000003 967.082 283.819 965.866 387.119 947.392 489.174 928.0989999999999 595.75 883.077 698.4110000000001 904.402 804.5989999999999 928.861 926.392 972.269 1058.07 1075.5149999999999 1127.15 1179.076 1196.441 1315.552 1156.728 1440 1162.96" fill="#37a172"></path></g><defs><mask id="SvgjsMask1001"><rect width="1440" height="560" fill="#ffffff"></rect></mask></defs></svg>